# xmcd CD database file
#
# Track frame offsets:
#	150
#	18342
#	34816
#	48326
#	60188
#	74547
#	89011
#	109587
#	125930
#	140765
#	150547
#	164972
#	175808
#	191289
#
# Disc length: 2821 seconds
#
# Revision: 4
# Processed by: cddbd v1.5.1PL0 Copyright (c) Steve Scherf et al.
# Submitted via: CDex 1.51
#
DISCID=c70b030e
DTITLE=Commitments - Original Motion Picture Soundtrack
DYEAR=1900
DGENRE=Blues
TTITLE0=Mustang Sally
TTITLE1=Take Me To The River
TTITLE2=Chain Of Fools
TTITLE3=The Dark End Of The Street
TTITLE4=Desitnation Anywhere
TTITLE5=I Can't Stand The Rain
TTITLE6=Try A Little Tenderness
TTITLE7=Treat Her Right
TTITLE8=Do Right Woman, Do Right Man
TTITLE9=Mr. Pitiful
TTITLE10=I Never Loved A Man
TTITLE11=In The Midnight Hour
TTITLE12=Bye Bye Baby
TTITLE13=Slip Away
EXTD=
EXTT0=
EXTT1=
EXTT2=
EXTT3=
EXTT4=
EXTT5=
EXTT6=
EXTT7=
EXTT8=
EXTT9=
EXTT10=
EXTT11=
EXTT12=
EXTT13=
PLAYORDER=
